<svg width="49" height="48" viewBox="0 0 49 48" fill="none" xmlns="http://www.w3.org/2000/svg">
<rect width="48.25" height="48" rx="12" fill="#3B82F6"/>
<g clip-path="url(#clip0_440_512)">
<path d="M19.9062 12.9062C19.9062 12.3522 20.0153 11.8036 20.2273 11.2918C20.4393 10.78 20.7501 10.3149 21.1418 9.92314C21.5336 9.5314 21.9986 9.22065 22.5105 9.00863C23.0223 8.79662 23.5709 8.6875 24.1249 8.6875C24.6789 8.6875 25.2275 8.79662 25.7394 9.00863C26.2512 9.22065 26.7163 9.5314 27.108 9.92314C27.4998 10.3149 27.8105 10.78 28.0225 11.2918C28.2346 11.8036 28.3437 12.3522 28.3437 12.9062C28.3437 13.4603 28.2346 14.0089 28.0225 14.5207C27.8105 15.0325 27.4998 15.4976 27.108 15.8894C26.7163 16.2811 26.2512 16.5919 25.7394 16.8039C25.2275 17.0159 24.6789 17.125 24.1249 17.125C23.5709 17.125 23.0223 17.0159 22.5105 16.8039C21.9986 16.5919 21.5336 16.2811 21.1418 15.8894C20.7501 15.4976 20.4393 15.0325 20.2273 14.5207C20.0153 14.0089 19.9062 13.4603 19.9062 12.9062ZM13.3261 16.2168C14.0878 15.168 15.5527 14.9395 16.6015 15.7012L18.7226 17.2422C20.2929 18.3848 22.1855 19 24.1249 19C26.0644 19 27.957 18.3848 29.5273 17.2422L31.6484 15.6953C32.6972 14.9336 34.162 15.168 34.9238 16.2109C35.6855 17.2539 35.4511 18.7246 34.4081 19.4863L32.287 21.0332C31.4902 21.6133 30.6406 22.0996 29.7499 22.498V24.625H18.4999V22.498C17.6093 22.1055 16.7597 21.6133 15.9628 21.0332L13.8417 19.4863C12.7929 18.7246 12.5644 17.2598 13.3261 16.2109V16.2168ZM18.5878 27.0449L22.1386 30.1504L20.6152 32.3301L22.039 33.7539C22.9531 34.668 22.9531 36.1504 22.039 37.0703C21.1249 37.9902 19.6425 37.9844 18.7226 37.0703L15.9101 34.2578C15.1015 33.4492 14.9902 32.1836 15.6406 31.252L18.582 27.0449H18.5878ZM26.1171 30.1504L29.6679 27.0449L32.6093 31.252C33.2597 32.1836 33.1484 33.4492 32.3456 34.252L29.5331 37.0645C28.6191 37.9785 27.1366 37.9785 26.2167 37.0645C25.2968 36.1504 25.3027 34.668 26.2167 33.748L27.6406 32.3242L26.1171 30.1445V30.1504Z" fill="white"/>
</g>
<defs>
<clipPath id="clip0_440_512">
<rect width="26.25" height="30" fill="white" transform="translate(11 7.75)"/>
</clipPath>
</defs>
</svg>
