<svg width="23" height="30" viewBox="0 0 23 30" fill="none" xmlns="http://www.w3.org/2000/svg">
<path d="M7.02971 4.21875C7.02971 3.66474 7.13883 3.11615 7.35084 2.6043C7.56286 2.09246 7.87361 1.62739 8.26536 1.23564C8.6571 0.843896 9.12217 0.533145 9.63402 0.321133C10.1459 0.109121 10.6944 0 11.2485 0C11.8025 0 12.3511 0.109121 12.8629 0.321133C13.3748 0.533145 13.8398 0.843896 14.2316 1.23564C14.6233 1.62739 14.9341 2.09246 15.1461 2.6043C15.3581 3.11615 15.4672 3.66474 15.4672 4.21875C15.4672 4.77276 15.3581 5.32135 15.1461 5.8332C14.9341 6.34504 14.6233 6.81011 14.2316 7.20186C13.8398 7.5936 13.3748 7.90436 12.8629 8.11637C12.3511 8.32838 11.8025 8.4375 11.2485 8.4375C10.6944 8.4375 10.1459 8.32838 9.63402 8.11637C9.12217 7.90436 8.6571 7.5936 8.26536 7.20186C7.87361 6.81011 7.56286 6.34504 7.35084 5.8332C7.13883 5.32135 7.02971 4.77276 7.02971 4.21875ZM0.449634 7.5293C1.21135 6.48047 2.6762 6.25195 3.72502 7.01367L5.84612 8.55469C7.41643 9.69727 9.30901 10.3125 11.2485 10.3125C13.1879 10.3125 15.0805 9.69727 16.6508 8.55469L18.7719 7.00781C19.8207 6.24609 21.2856 6.48047 22.0473 7.52344C22.809 8.56641 22.5746 10.0371 21.5317 10.7988L19.4106 12.3457C18.6137 12.9258 17.7641 13.4121 16.8735 13.8105V15.9375H5.62346V13.8105C4.73284 13.418 3.88323 12.9258 3.08635 12.3457L0.965259 10.7988C-0.0835694 10.0371 -0.312085 8.57227 0.449634 7.52344V7.5293ZM5.71135 18.3574L9.26213 21.4629L7.7387 23.6426L9.16252 25.0664C10.0766 25.9805 10.0766 27.4629 9.16252 28.3828C8.24846 29.3027 6.76604 29.2969 5.84612 28.3828L3.03362 25.5703C2.22502 24.7617 2.1137 23.4961 2.76409 22.5645L5.70549 18.3574H5.71135ZM13.2406 21.4629L16.7914 18.3574L19.7328 22.5645C20.3832 23.4961 20.2719 24.7617 19.4692 25.5645L16.6567 28.377C15.7426 29.291 14.2602 29.291 13.3403 28.377C12.4203 27.4629 12.4262 25.9805 13.3403 25.0605L14.7641 23.6367L13.2406 21.457V21.4629Z" fill="#3B82F6"/>
</svg>
